# xmcd
#
# Track frame offsets:
#	150
#	20157
#	35006
#	58778
#	78882
#	94197
#	114131
#	134898
#	153801
#	167300
#
# Disc length: 2489 seconds
#
# Revision: 1
# Processed by: cddbd v1.5.2PL0 Copyright (c) Steve Scherf et al.
# Submitted via: audiograbber 1.82.01
#
DISCID=7809b70a
DTITLE=Νίκος Ταβερναράκης - Η ΑΓΑΠΗ ΤΩΝ ΑΝΕΜΩΝ
DYEAR=2008
DGENRE=Pop
TTITLE0=Μίλτος Πασχαλίδης - Μαυρομαλλούσα
TTITLE1=Μιχάλης Τζουγανάκης - Η αγάπη των ανέμων
TTITLE2=Γιώργος Μανωλιούδης - Δίχως ντροπή
TTITLE3=Βασίλης Σκουλάς - Το κόκκινο μαντήλι
TTITLE4=Νίκος Ταβερναράκης - Δεν μπορώ
TTITLE5=Μιχάλης Τζουγανάκης - Στα όριά μου
TTITLE6=Μαρία Κώτη - Η Ελενίτσα
TTITLE7=Νίκος Ξυλούρης (Γκρας) - Μαύρα μάτια
TTITLE8=Χρυσαυγή Ματσίνη - Χείλη σαν το μέλι
TTITLE9=Νίκος Ξυλούρης (Γκράς) - Η γειτονιά
EXTD=
EXTT0=
EXTT1=
EXTT2=
EXTT3=
EXTT4=
EXTT5=
EXTT6=
EXTT7=
EXTT8=
EXTT9=
PLAYORDER=
